<svg width="24" height="25" viewBox="0 0 24 25" fill="none" xmlns="http://www.w3.org/2000/svg">
<g id="Icon &#226;&#128;&#162; Chevron Right">
<path id="Chevron Right" d="M9.42969 19.8594C9.6875 19.8594 9.89844 19.7656 10.0781 19.5938L16.1562 13.6562C16.3672 13.4375 16.4766 13.2109 16.4766 12.9297C16.4766 12.6562 16.375 12.4141 16.1562 12.2109L10.0781 6.26562C9.89844 6.09375 9.6875 6 9.42969 6C8.90625 6 8.5 6.40625 8.5 6.92188C8.5 7.17188 8.60938 7.41406 8.78125 7.59375L14.2578 12.9375L8.78125 18.2656C8.60156 18.4531 8.5 18.6797 8.5 18.9375C8.5 19.4531 8.90625 19.8594 9.42969 19.8594Z" fill="#BDBCBC"/>
</g>
</svg>
