<svg width="24" height="25" viewBox="0 0 24 25" fill="none" xmlns="http://www.w3.org/2000/svg">
<g id="Icon &#226;&#128;&#162; Sidebar">
<path id="Sidebar" d="M4.73096 21.0142H18.9336C20.7349 21.0142 21.6729 20.0845 21.6729 18.3081V8.20605C21.6729 6.42969 20.7349 5.5 18.9336 5.5H4.73096C2.93799 5.5 2 6.42139 2 8.20605V18.3081C2 20.0845 2.93799 21.0142 4.73096 21.0142ZM4.83887 19.3623C4.0752 19.3623 3.65186 18.9639 3.65186 18.1587V8.35547C3.65186 7.55029 4.0752 7.15186 4.83887 7.15186H8.62402V19.3623H4.83887ZM18.8257 7.15186C19.5894 7.15186 20.0127 7.55029 20.0127 8.35547V18.1587C20.0127 18.9639 19.5894 19.3623 18.8257 19.3623H10.1929V7.15186H18.8257ZM6.99707 10.1899C7.2959 10.1899 7.54492 9.93262 7.54492 9.65039C7.54492 9.36816 7.2959 9.11914 6.99707 9.11914H5.29541C4.99658 9.11914 4.74756 9.36816 4.74756 9.65039C4.74756 9.93262 4.99658 10.1899 5.29541 10.1899H6.99707ZM6.99707 12.4229C7.2959 12.4229 7.54492 12.1738 7.54492 11.8833C7.54492 11.6011 7.2959 11.3521 6.99707 11.3521H5.29541C4.99658 11.3521 4.74756 11.6011 4.74756 11.8833C4.74756 12.1738 4.99658 12.4229 5.29541 12.4229H6.99707ZM6.99707 14.6475C7.2959 14.6475 7.54492 14.4067 7.54492 14.1162C7.54492 13.834 7.2959 13.5933 6.99707 13.5933H5.29541C4.99658 13.5933 4.74756 13.834 4.74756 14.1162C4.74756 14.4067 4.99658 14.6475 5.29541 14.6475H6.99707Z" fill="#717171"/>
</g>
</svg>
