<svg width="24" height="25" viewBox="0 0 24 25" fill="none" xmlns="http://www.w3.org/2000/svg">
<g id="Icon &#226;&#128;&#162; Chevron Left">
<path id="Chevron Left" d="M13.3984 19.5938L7.32031 13.6484C7.10938 13.4375 7 13.2031 7 12.9297C7 12.6562 7.10938 12.4062 7.32812 12.2031L13.4062 6.26562C13.5781 6.09375 13.7969 6 14.0469 6C14.5703 6 14.9766 6.40625 14.9766 6.92188C14.9766 7.17188 14.875 7.41406 14.6953 7.59375L9.22656 12.9219L14.6953 18.2656C14.875 18.4453 14.9766 18.6797 14.9766 18.9375C14.9766 19.4531 14.5703 19.8594 14.0469 19.8594C13.7969 19.8594 13.5781 19.7656 13.3984 19.5938Z" fill="#717171"/>
</g>
</svg>
