<svg width="24" height="25" viewBox="0 0 24 25" fill="none" xmlns="http://www.w3.org/2000/svg">
<g id="Icon &#226;&#128;&#162; New Tab">
<path id="New Tab" d="M12 19.5C12.5269 19.5 12.9534 19.0723 12.9534 18.587V13.4377H18.055C18.5651 13.4377 19 13.0182 19 12.5C19 11.99 18.5651 11.5623 18.055 11.5623H12.9534V6.41304C12.9534 5.91951 12.5269 5.5 12 5.5C11.4815 5.5 11.0466 5.91951 11.0466 6.41304V11.5623H5.94504C5.45161 11.5623 5 11.99 5 12.5C5 13.0182 5.45161 13.4377 5.94504 13.4377H11.0466V18.587C11.0466 19.0723 11.4815 19.5 12 19.5Z" fill="#717171"/>
</g>
</svg>
