<svg width="24" height="25" viewBox="0 0 24 25" fill="none" xmlns="http://www.w3.org/2000/svg">
<g id="Icon &#226;&#128;&#162; Share">
<path id="Share" d="M12.0083 14.8736C12.4309 14.8736 12.779 14.5253 12.779 14.1107V5.76757L12.721 4.54016L13.2265 5.14557L14.3867 6.38127C14.5193 6.53055 14.7099 6.60519 14.9006 6.60519C15.2818 6.60519 15.5967 6.33151 15.5967 5.94173C15.5967 5.7344 15.5138 5.58512 15.3729 5.44413L12.5967 2.76539C12.3978 2.56635 12.2072 2.5 12.0083 2.5C11.8011 2.5 11.6188 2.56635 11.4199 2.76539L8.63536 5.44413C8.49448 5.58512 8.4116 5.7344 8.4116 5.94173C8.4116 6.33151 8.71823 6.60519 9.09945 6.60519C9.29006 6.60519 9.48895 6.53055 9.62155 6.38127L10.7818 5.14557L11.2956 4.53186L11.2293 5.76757V14.1107C11.2293 14.5253 11.5773 14.8736 12.0083 14.8736ZM7.22652 21.5H16.7735C18.5718 21.5 19.5 20.5711 19.5 18.7964V10.644C19.5 8.86927 18.5718 7.94042 16.7735 7.94042H14.5359V9.59079H16.6657C17.4199 9.59079 17.8508 9.98887 17.8508 10.785V18.6471C17.8508 19.4433 17.4199 19.8413 16.6657 19.8413H7.33425C6.57182 19.8413 6.14917 19.4433 6.14917 18.6471V10.785C6.14917 9.98887 6.57182 9.59079 7.33425 9.59079H9.48895V7.94042H7.22652C5.43646 7.94042 4.5 8.86098 4.5 10.644V18.7964C4.5 20.5711 5.43646 21.5 7.22652 21.5Z" fill="#717171"/>
</g>
</svg>
