<svg width="24" height="25" viewBox="0 0 24 25" fill="none" xmlns="http://www.w3.org/2000/svg">
<g id="Icon &#226;&#128;&#162; Tab Overview">
<path id="Tab Overview" d="M5.72778 17.5347H7.13726V18.7867C7.13726 20.561 8.07416 21.4896 9.86504 21.4896H18.2722C20.0631 21.4896 21 20.561 21 18.7867V10.3215C21 8.54719 20.0631 7.61858 18.2722 7.61858H16.8627V6.37491C16.8627 4.60062 15.9258 3.67201 14.135 3.67201H5.72778C3.9286 3.67201 3 4.60062 3 6.37491V14.8318C3 16.6144 3.9286 17.5347 5.72778 17.5347ZM5.83556 15.8848C5.07278 15.8848 4.64993 15.4868 4.64993 14.6826V6.52415C4.64993 5.71992 5.07278 5.33023 5.83556 5.33023H14.0272C14.7817 5.33023 15.2128 5.71992 15.2128 6.52415V7.61858H9.86504C8.07416 7.61858 7.13726 8.54719 7.13726 10.3215V15.8848H5.83556ZM9.97282 19.8314C9.21004 19.8314 8.79549 19.4334 8.79549 18.6375V10.4707C8.79549 9.67478 9.21004 9.2768 9.97282 9.2768H18.1644C18.9272 9.2768 19.3501 9.67478 19.3501 10.4707V18.6375C19.3501 19.4334 18.9272 19.8314 18.1644 19.8314H9.97282Z" fill="#717171"/>
</g>
</svg>
