<svg width="30" height="30" viewBox="0 0 30 30" fill="none" xmlns="http://www.w3.org/2000/svg">
<g id="Action/list">
<path id="Icon" fill-rule="evenodd" clip-rule="evenodd" d="M7 12C7.55 12 8 11.55 8 11C8 10.45 7.55 10 7 10C6.45 10 6 10.45 6 11C6 11.55 6.45 12 7 12ZM8 15C8 15.55 7.55 16 7 16C6.45 16 6 15.55 6 15C6 14.45 6.45 14 7 14C7.55 14 8 14.45 8 15ZM8 19C8 19.55 7.55 20 7 20C6.45 20 6 19.55 6 19C6 18.45 6.45 18 7 18C7.55 18 8 18.45 8 19ZM24 15C24 15.55 23.55 16 23 16H11C10.45 16 10 15.55 10 15C10 14.45 10.45 14 11 14H23C23.55 14 24 14.45 24 15ZM23 20C23.55 20 24 19.55 24 19C24 18.45 23.55 18 23 18H11C10.45 18 10 18.45 10 19C10 19.55 10.45 20 11 20H23ZM11 12C10.45 12 10 11.55 10 11C10 10.45 10.45 10 11 10H23C23.55 10 24 10.45 24 11C24 11.55 23.55 12 23 12H11Z" fill="#C3CAD9"/>
</g>
</svg>
